<mxfile host="app.diagrams.net" modified="2022-11-06T14:51:23.749Z" agent="5.0 (Windows NT 10.0; Win64; x64) AppleWebKit/537.36 (KHTML, like Gecko) Chrome/87.0.4280.88 Safari/537.36" etag="4yEDjHap0DwpgJuAzaZ2" version="20.4.1" type="github">
  <diagram id="c7qtGGyd-daviKtWmJNw" name="第 1 页">
    <mxGraphModel dx="1422" dy="800" grid="1" gridSize="10" guides="1" tooltips="1" connect="1" arrows="1" fold="1" page="1" pageScale="1" pageWidth="827" pageHeight="1169" math="0" shadow="0">
      <root>
        <mxCell id="0" />
        <mxCell id="1" parent="0" />
        <mxCell id="bXOFcnJJQob3LdbZ4P6e-52" style="edgeStyle=orthogonalEdgeStyle;curved=1;rounded=0;orthogonalLoop=1;jettySize=auto;html=1;entryX=1;entryY=0.5;entryDx=0;entryDy=0;endArrow=block;endFill=0;" edge="1" parent="1" source="bXOFcnJJQob3LdbZ4P6e-35" target="bXOFcnJJQob3LdbZ4P6e-27">
          <mxGeometry relative="1" as="geometry" />
        </mxCell>
        <mxCell id="bXOFcnJJQob3LdbZ4P6e-35" value="" style="rounded=0;whiteSpace=wrap;html=1;fillColor=default;glass=0;shadow=1;sketch=1;" vertex="1" parent="1">
          <mxGeometry x="700" y="280" width="220" height="420" as="geometry" />
        </mxCell>
        <mxCell id="bXOFcnJJQob3LdbZ4P6e-1" style="edgeStyle=orthogonalEdgeStyle;rounded=0;orthogonalLoop=1;jettySize=auto;html=1;entryX=0;entryY=0.5;entryDx=0;entryDy=0;" edge="1" parent="1" source="bXOFcnJJQob3LdbZ4P6e-2" target="bXOFcnJJQob3LdbZ4P6e-5">
          <mxGeometry relative="1" as="geometry" />
        </mxCell>
        <mxCell id="bXOFcnJJQob3LdbZ4P6e-2" value="Actor" style="shape=umlActor;verticalLabelPosition=bottom;verticalAlign=top;html=1;outlineConnect=0;" vertex="1" parent="1">
          <mxGeometry x="50" y="70" width="30" height="60" as="geometry" />
        </mxCell>
        <mxCell id="bXOFcnJJQob3LdbZ4P6e-3" style="edgeStyle=orthogonalEdgeStyle;rounded=0;orthogonalLoop=1;jettySize=auto;html=1;curved=1;endArrow=block;endFill=0;" edge="1" parent="1" source="bXOFcnJJQob3LdbZ4P6e-5" target="bXOFcnJJQob3LdbZ4P6e-8">
          <mxGeometry relative="1" as="geometry" />
        </mxCell>
        <mxCell id="bXOFcnJJQob3LdbZ4P6e-4" value="IO" style="edgeLabel;html=1;align=center;verticalAlign=middle;resizable=0;points=[];" vertex="1" connectable="0" parent="bXOFcnJJQob3LdbZ4P6e-3">
          <mxGeometry x="-0.1098" relative="1" as="geometry">
            <mxPoint x="1" as="offset" />
          </mxGeometry>
        </mxCell>
        <mxCell id="bXOFcnJJQob3LdbZ4P6e-5" value="SqlSessionFactoryBuilder" style="rounded=1;whiteSpace=wrap;html=1;fillColor=#1ba1e2;fontColor=#ffffff;strokeColor=#006EAF;" vertex="1" parent="1">
          <mxGeometry x="165" y="72.5" width="720" height="55" as="geometry" />
        </mxCell>
        <mxCell id="bXOFcnJJQob3LdbZ4P6e-6" style="rounded=0;orthogonalLoop=1;jettySize=auto;html=1;endArrow=block;endFill=0;edgeStyle=orthogonalEdgeStyle;" edge="1" parent="1" source="bXOFcnJJQob3LdbZ4P6e-8" target="bXOFcnJJQob3LdbZ4P6e-13">
          <mxGeometry relative="1" as="geometry" />
        </mxCell>
        <mxCell id="bXOFcnJJQob3LdbZ4P6e-7" style="edgeStyle=orthogonalEdgeStyle;rounded=0;orthogonalLoop=1;jettySize=auto;html=1;endArrow=block;endFill=0;" edge="1" parent="1" source="bXOFcnJJQob3LdbZ4P6e-8" target="bXOFcnJJQob3LdbZ4P6e-12">
          <mxGeometry relative="1" as="geometry" />
        </mxCell>
        <mxCell id="bXOFcnJJQob3LdbZ4P6e-8" value="XMLConfigBuilder" style="rounded=1;whiteSpace=wrap;html=1;fillColor=#d5e8d4;strokeColor=#82b366;sketch=1;" vertex="1" parent="1">
          <mxGeometry x="160" y="180" width="180" height="60" as="geometry" />
        </mxCell>
        <mxCell id="bXOFcnJJQob3LdbZ4P6e-9" style="edgeStyle=orthogonalEdgeStyle;rounded=0;orthogonalLoop=1;jettySize=auto;html=1;entryX=0;entryY=0.5;entryDx=0;entryDy=0;endArrow=block;endFill=0;" edge="1" parent="1" source="bXOFcnJJQob3LdbZ4P6e-12" target="bXOFcnJJQob3LdbZ4P6e-18">
          <mxGeometry relative="1" as="geometry" />
        </mxCell>
        <mxCell id="bXOFcnJJQob3LdbZ4P6e-10" style="edgeStyle=orthogonalEdgeStyle;rounded=0;orthogonalLoop=1;jettySize=auto;html=1;exitX=1;exitY=0.5;exitDx=0;exitDy=0;entryX=0;entryY=0.5;entryDx=0;entryDy=0;endArrow=block;endFill=0;curved=1;" edge="1" parent="1" source="bXOFcnJJQob3LdbZ4P6e-12" target="bXOFcnJJQob3LdbZ4P6e-20">
          <mxGeometry relative="1" as="geometry" />
        </mxCell>
        <mxCell id="bXOFcnJJQob3LdbZ4P6e-11" style="edgeStyle=orthogonalEdgeStyle;rounded=0;orthogonalLoop=1;jettySize=auto;html=1;exitX=0.5;exitY=1;exitDx=0;exitDy=0;endArrow=block;endFill=0;dashed=1;" edge="1" parent="1" source="bXOFcnJJQob3LdbZ4P6e-12" target="bXOFcnJJQob3LdbZ4P6e-25">
          <mxGeometry relative="1" as="geometry" />
        </mxCell>
        <mxCell id="bXOFcnJJQob3LdbZ4P6e-12" value="parse" style="rounded=1;whiteSpace=wrap;html=1;fillColor=#d5e8d4;strokeColor=#82b366;sketch=1;" vertex="1" parent="1">
          <mxGeometry x="160" y="310" width="180" height="60" as="geometry" />
        </mxCell>
        <mxCell id="bXOFcnJJQob3LdbZ4P6e-13" value="Configutation" style="rounded=1;whiteSpace=wrap;html=1;fillColor=#f8cecc;strokeColor=#b85450;gradientColor=none;shadow=0;glass=0;sketch=1;" vertex="1" parent="1">
          <mxGeometry x="700" y="175" width="220" height="70" as="geometry" />
        </mxCell>
        <mxCell id="bXOFcnJJQob3LdbZ4P6e-38" style="edgeStyle=orthogonalEdgeStyle;rounded=0;orthogonalLoop=1;jettySize=auto;html=1;entryX=0;entryY=0.5;entryDx=0;entryDy=0;endArrow=block;endFill=0;" edge="1" parent="1" source="bXOFcnJJQob3LdbZ4P6e-18" target="bXOFcnJJQob3LdbZ4P6e-36">
          <mxGeometry relative="1" as="geometry" />
        </mxCell>
        <mxCell id="bXOFcnJJQob3LdbZ4P6e-18" value="解析连接池" style="rounded=1;whiteSpace=wrap;html=1;fillColor=#ffe6cc;strokeColor=#d79b00;sketch=1;" vertex="1" parent="1">
          <mxGeometry x="430" y="310" width="180" height="60" as="geometry" />
        </mxCell>
        <mxCell id="bXOFcnJJQob3LdbZ4P6e-47" style="edgeStyle=orthogonalEdgeStyle;rounded=0;orthogonalLoop=1;jettySize=auto;html=1;endArrow=block;endFill=0;" edge="1" parent="1" source="bXOFcnJJQob3LdbZ4P6e-20" target="bXOFcnJJQob3LdbZ4P6e-45">
          <mxGeometry relative="1" as="geometry" />
        </mxCell>
        <mxCell id="bXOFcnJJQob3LdbZ4P6e-20" value="注册Mapper" style="rounded=1;whiteSpace=wrap;html=1;sketch=1;" vertex="1" parent="1">
          <mxGeometry x="450" y="620" width="180" height="60" as="geometry" />
        </mxCell>
        <mxCell id="bXOFcnJJQob3LdbZ4P6e-21" value="init" style="text;html=1;align=center;verticalAlign=middle;resizable=0;points=[];autosize=1;strokeColor=none;fillColor=none;" vertex="1" parent="1">
          <mxGeometry x="470" y="180" width="40" height="30" as="geometry" />
        </mxCell>
        <mxCell id="bXOFcnJJQob3LdbZ4P6e-22" value="解析XML" style="text;html=1;align=center;verticalAlign=middle;resizable=0;points=[];autosize=1;strokeColor=none;fillColor=none;" vertex="1" parent="1">
          <mxGeometry x="235" y="255" width="70" height="30" as="geometry" />
        </mxCell>
        <mxCell id="bXOFcnJJQob3LdbZ4P6e-23" style="edgeStyle=orthogonalEdgeStyle;rounded=0;orthogonalLoop=1;jettySize=auto;html=1;entryX=0;entryY=0.5;entryDx=0;entryDy=0;endArrow=block;endFill=0;" edge="1" parent="1" source="bXOFcnJJQob3LdbZ4P6e-25" target="bXOFcnJJQob3LdbZ4P6e-27">
          <mxGeometry relative="1" as="geometry" />
        </mxCell>
        <mxCell id="bXOFcnJJQob3LdbZ4P6e-25" value="DefaultSqlSession" style="rounded=1;whiteSpace=wrap;html=1;sketch=1;" vertex="1" parent="1">
          <mxGeometry x="160" y="810" width="180" height="60" as="geometry" />
        </mxCell>
        <mxCell id="bXOFcnJJQob3LdbZ4P6e-49" style="edgeStyle=orthogonalEdgeStyle;rounded=0;orthogonalLoop=1;jettySize=auto;html=1;endArrow=block;endFill=0;" edge="1" parent="1" source="bXOFcnJJQob3LdbZ4P6e-27" target="bXOFcnJJQob3LdbZ4P6e-29">
          <mxGeometry relative="1" as="geometry" />
        </mxCell>
        <mxCell id="bXOFcnJJQob3LdbZ4P6e-27" value="selectOne" style="rounded=1;whiteSpace=wrap;html=1;sketch=1;fillColor=#ffe6cc;strokeColor=#d79b00;" vertex="1" parent="1">
          <mxGeometry x="520" y="810" width="180" height="60" as="geometry" />
        </mxCell>
        <mxCell id="bXOFcnJJQob3LdbZ4P6e-50" style="edgeStyle=orthogonalEdgeStyle;rounded=0;orthogonalLoop=1;jettySize=auto;html=1;entryX=0.5;entryY=0;entryDx=0;entryDy=0;endArrow=block;endFill=0;" edge="1" parent="1" source="bXOFcnJJQob3LdbZ4P6e-29" target="bXOFcnJJQob3LdbZ4P6e-48">
          <mxGeometry relative="1" as="geometry" />
        </mxCell>
        <mxCell id="bXOFcnJJQob3LdbZ4P6e-29" value="执行SQL" style="rounded=1;whiteSpace=wrap;html=1;sketch=1;fillColor=#ffe6cc;strokeColor=#d79b00;" vertex="1" parent="1">
          <mxGeometry x="520" y="920" width="180" height="60" as="geometry" />
        </mxCell>
        <mxCell id="bXOFcnJJQob3LdbZ4P6e-30" value="opensession" style="text;html=1;align=center;verticalAlign=middle;resizable=0;points=[];autosize=1;strokeColor=none;fillColor=none;rotation=90;" vertex="1" parent="1">
          <mxGeometry x="235" y="455" width="90" height="30" as="geometry" />
        </mxCell>
        <mxCell id="bXOFcnJJQob3LdbZ4P6e-41" style="edgeStyle=orthogonalEdgeStyle;rounded=0;orthogonalLoop=1;jettySize=auto;html=1;endArrow=block;endFill=0;" edge="1" parent="1" source="bXOFcnJJQob3LdbZ4P6e-36" target="bXOFcnJJQob3LdbZ4P6e-39">
          <mxGeometry relative="1" as="geometry" />
        </mxCell>
        <mxCell id="bXOFcnJJQob3LdbZ4P6e-36" value="Environment" style="rounded=1;whiteSpace=wrap;html=1;shadow=0;glass=0;sketch=1;fillColor=#ffe6cc;strokeColor=#d79b00;" vertex="1" parent="1">
          <mxGeometry x="735" y="310" width="150" height="60" as="geometry" />
        </mxCell>
        <mxCell id="bXOFcnJJQob3LdbZ4P6e-39" value="事务工厂（TransactionFactory) | 数据源（Druid）" style="rounded=1;whiteSpace=wrap;html=1;fillColor=#ffe6cc;strokeColor=#d79b00;sketch=1;" vertex="1" parent="1">
          <mxGeometry x="435" y="420" width="445" height="50" as="geometry" />
        </mxCell>
        <mxCell id="bXOFcnJJQob3LdbZ4P6e-46" style="edgeStyle=orthogonalEdgeStyle;rounded=0;orthogonalLoop=1;jettySize=auto;html=1;endArrow=block;endFill=0;" edge="1" parent="1" source="bXOFcnJJQob3LdbZ4P6e-42" target="bXOFcnJJQob3LdbZ4P6e-44">
          <mxGeometry relative="1" as="geometry" />
        </mxCell>
        <mxCell id="bXOFcnJJQob3LdbZ4P6e-42" value="解析SQL" style="rounded=1;whiteSpace=wrap;html=1;sketch=1;" vertex="1" parent="1">
          <mxGeometry x="450" y="510" width="180" height="60" as="geometry" />
        </mxCell>
        <mxCell id="bXOFcnJJQob3LdbZ4P6e-43" style="edgeStyle=orthogonalEdgeStyle;rounded=0;orthogonalLoop=1;jettySize=auto;html=1;exitX=1;exitY=0.5;exitDx=0;exitDy=0;entryX=0;entryY=0.5;entryDx=0;entryDy=0;endArrow=block;endFill=0;curved=1;" edge="1" parent="1" target="bXOFcnJJQob3LdbZ4P6e-42">
          <mxGeometry relative="1" as="geometry">
            <mxPoint x="340" y="340" as="sourcePoint" />
            <mxPoint x="435" y="615" as="targetPoint" />
          </mxGeometry>
        </mxCell>
        <mxCell id="bXOFcnJJQob3LdbZ4P6e-44" value="MappedStatement&lt;span style=&quot;color: rgba(0, 0, 0, 0); font-family: monospace; font-size: 0px; text-align: start;&quot;&gt;%3CmxGraphModel%3E%3Croot%3E%3CmxCell%20id%3D%220%22%2F%3E%3CmxCell%20id%3D%221%22%20parent%3D%220%22%2F%3E%3CmxCell%20id%3D%222%22%20value%3D%22%E8%A7%A3%E6%9E%90SQL%22%20style%3D%22rounded%3D1%3BwhiteSpace%3Dwrap%3Bhtml%3D1%3Bsketch%3D1%3B%22%20vertex%3D%221%22%20parent%3D%221%22%3E%3CmxGeometry%20x%3D%22450%22%20y%3D%22510%22%20width%3D%22180%22%20height%3D%2260%22%20as%3D%22geometry%22%2F%3E%3C%2FmxCell%3E%3C%2Froot%3E%3C%2FmxGraphModel%3E&lt;/span&gt;" style="rounded=1;whiteSpace=wrap;html=1;sketch=1;" vertex="1" parent="1">
          <mxGeometry x="720" y="510" width="180" height="60" as="geometry" />
        </mxCell>
        <mxCell id="bXOFcnJJQob3LdbZ4P6e-45" value="MapperRegistry" style="rounded=1;whiteSpace=wrap;html=1;sketch=1;" vertex="1" parent="1">
          <mxGeometry x="720" y="620" width="180" height="60" as="geometry" />
        </mxCell>
        <mxCell id="bXOFcnJJQob3LdbZ4P6e-51" style="edgeStyle=orthogonalEdgeStyle;rounded=0;orthogonalLoop=1;jettySize=auto;html=1;entryX=0.5;entryY=1;entryDx=0;entryDy=0;endArrow=block;endFill=0;curved=1;dashed=1;" edge="1" parent="1" source="bXOFcnJJQob3LdbZ4P6e-48" target="bXOFcnJJQob3LdbZ4P6e-25">
          <mxGeometry relative="1" as="geometry" />
        </mxCell>
        <mxCell id="bXOFcnJJQob3LdbZ4P6e-48" value="封装结果" style="rounded=1;whiteSpace=wrap;html=1;sketch=1;fillColor=#ffe6cc;strokeColor=#d79b00;" vertex="1" parent="1">
          <mxGeometry x="520" y="1040" width="180" height="60" as="geometry" />
        </mxCell>
        <mxCell id="bXOFcnJJQob3LdbZ4P6e-53" value="DB连接池" style="text;html=1;align=center;verticalAlign=middle;resizable=0;points=[];autosize=1;strokeColor=none;fillColor=none;" vertex="1" parent="1">
          <mxGeometry x="790" y="800" width="80" height="30" as="geometry" />
        </mxCell>
      </root>
    </mxGraphModel>
  </diagram>
</mxfile>
